<svg width="221" height="62" viewBox="0 0 221 62" fill="none" xmlns="http://www.w3.org/2000/svg">
<path d="M0 61.6644L21.2185 0.419485H40.9883L62.8033 61.6644H50.362L31.8703 8.55751L36.2163 10.4032H25.5645L29.9956 8.55751L12.1005 61.6644H0ZM14.8274 45.3884L18.6621 35.3207H43.8856L47.6351 45.3884H14.8274Z" fill="white"/>
<path d="M72.2142 61.6644V0.419485H84.3147V61.6644H72.2142Z" fill="white"/>
<path d="M110.235 62V50.9256H123.102C126.34 50.9256 129.209 50.4502 131.709 49.4993C134.265 48.4926 136.424 47.0943 138.185 45.3045C139.946 43.5147 141.281 41.4172 142.19 39.0122C143.156 36.5512 143.639 33.8385 143.639 30.8742C143.639 27.7979 143.156 25.0573 142.19 22.6522C141.281 20.1912 139.946 18.0938 138.185 16.3599C136.424 14.6261 134.265 13.3117 131.709 12.4168C129.209 11.5219 126.34 11.0744 123.102 11.0744H110.235V0H122.335C127.959 0 132.873 0.811005 137.077 2.43302C141.281 4.05503 144.775 6.29228 147.559 9.14479C150.342 11.9414 152.416 15.1574 153.779 18.793C155.2 22.3726 155.91 26.092 155.91 29.9513V31.797C155.91 35.4885 155.2 39.124 153.779 42.7037C152.416 46.2833 150.342 49.5273 147.559 52.4357C144.775 55.3442 141.281 57.6653 137.077 59.3992C132.873 61.1331 127.959 62 122.335 62H110.235ZM99.8385 62V0H111.939V62H99.8385Z" fill="white"/>
<path d="M158.197 61.6644L179.415 0.419485H199.185L221 61.6644H208.559L190.067 8.55751L194.413 10.4032H183.761L188.192 8.55751L170.297 61.6644H158.197ZM173.024 45.3884L176.859 35.3207H202.082L205.832 45.3884H173.024Z" fill="white"/>
</svg>
