<svg width="384" height="366" viewBox="0 0 384 366" fill="none" xmlns="http://www.w3.org/2000/svg">
<path d="M319.453 0H32C14.3269 0 0 14.3269 0 32V334C0 351.673 14.3269 366 32 366H352C369.673 366 384 351.673 384 334V66.8225C384 58.7093 380.918 50.899 375.378 44.9717L342.831 10.1492C336.779 3.67494 328.314 0 319.453 0Z" fill="#0E0C15"/>
<path d="M32 1H319.453C328.037 1 336.238 4.5601 342.1 10.832L374.648 45.6545C380.015 51.3966 383 58.9629 383 66.8225V334C383 351.121 369.121 365 352 365H32C14.8792 365 1 351.121 1 334V32C1 14.8792 14.8792 1 32 1Z" stroke="white" stroke-opacity="0.15" stroke-width="2"/>
<path d="M32 1H319.453C328.037 1 336.238 4.5601 342.1 10.832L374.648 45.6545C380.015 51.3966 383 58.9629 383 66.8225V334C383 351.121 369.121 365 352 365H32C14.8792 365 1 351.121 1 334V32C1 14.8792 14.8792 1 32 1Z" stroke="url(#paint0_linear_1_9174)" stroke-opacity="0.85" stroke-width="2"/>
<defs>
<linearGradient id="paint0_linear_1_9174" x1="192" y1="0" x2="192" y2="366" gradientUnits="userSpaceOnUse">
<stop stop-color="#B6EE7D"/>
<stop offset="0.562842" stop-color="#FF3F33" stop-opacity="0"/>
</linearGradient>
</defs>
</svg>
