<svg width="34" height="34" viewBox="0 0 34 34" fill="none" xmlns="http://www.w3.org/2000/svg">
<path d="M25.5 7.08325H8.5C5.66667 7.08325 4.25 8.49992 4.25 11.3333V24.0833C4.25 26.9166 5.66667 28.3333 8.5 28.3333H25.5C28.3333 28.3333 29.75 26.9166 29.75 24.0833V11.3333C29.75 8.49992 28.3333 7.08325 25.5 7.08325ZM25.4163 13.6084L18.4578 18.6687C18.0215 18.9861 17.51 19.1448 17 19.1448C16.49 19.1448 15.9771 18.9861 15.5422 18.6702L8.5837 13.6084C8.10912 13.2642 8.00423 12.5983 8.34989 12.1237C8.69414 11.6506 9.35552 11.5429 9.83435 11.89L16.7932 16.9503C16.9178 17.0396 17.0835 17.041 17.2082 16.9503L24.167 11.89C24.6444 11.5429 25.3072 11.6506 25.6515 12.1237C25.9972 12.5997 25.8909 13.2642 25.4163 13.6084Z" fill="#B88CFF"/>
</svg>
