<svg width="34" height="34" viewBox="0 0 34 34" fill="none" xmlns="http://www.w3.org/2000/svg">
<path d="M28.2484 11.3192C28.2625 11.5601 28.2625 11.8151 28.2625 12.0701C28.2625 19.6351 22.4259 28.3476 11.7442 28.3476C8.45753 28.3476 5.39754 27.4126 2.83337 25.7834C3.30087 25.8401 3.75422 25.8542 4.23588 25.8542C6.95588 25.8542 9.44921 24.9476 11.4467 23.4176C8.89671 23.3609 6.75754 21.7176 6.02087 19.4509C6.37504 19.5076 6.74338 19.5359 7.11171 19.5359C7.63588 19.5359 8.16005 19.4651 8.64172 19.3376C5.97838 18.7992 3.98087 16.5042 3.98087 13.7276V13.6567C4.76004 14.0817 5.65255 14.3509 6.60171 14.3792C5.04338 13.3451 4.00921 11.6026 4.00921 9.61922C4.00921 8.55672 4.29254 7.57923 4.80254 6.72923C7.66421 10.2001 11.9567 12.4667 16.7734 12.7217C16.6884 12.2967 16.6317 11.8576 16.6317 11.4184C16.6317 8.25923 19.2242 5.69507 22.44 5.69507C24.1117 5.69507 25.6275 6.38922 26.6759 7.49422C27.9934 7.25339 29.24 6.77174 30.3592 6.12007C29.9342 7.45174 29.0134 8.57089 27.8092 9.26505C28.9709 9.13755 30.1042 8.82589 31.1525 8.38673C30.3592 9.52006 29.3675 10.5259 28.2342 11.3476L28.2484 11.3192Z" fill="#B88CFF"/>
</svg>
